:SAMPLES-PER-SECOND 30
:FULLY-SPECIFIED
:DEGREES
426
root  48.9388 34.8834 47.7948 7.33365 32.7537 -0.0115662
LeftUpLeg  -13.7305 10.2891 -0.75813
LeftLeg  14.4705 6.21995 1.18108
LeftFoot  0.0833349 0.0049308 0.034247
LeftToes  -9.36335 1.61378e-006 8.80029e-008
Spine  2.98212 3.88493 -3.80284
Spine1  5.25316 8.19409 -7.41008
RightShoulder  0.0387859 6.3601 0.694464
RightArm  -53.1325 33.8142 48.4088
RightForeArm  -13.7178 48.8327 11.5918
RightHand  0.463369 -13.243 -3.6183
LeftShoulder1  0.0731264 -1.15985 -7.56411
LeftArm  -24.8058 10.2572 -63.7453
LeftForeArm  31.4751 -17.6516 -3.20801
LeftHand  0.105736 2.12719 5.10016
HEad  -1.83696 -27.8399 -5.04682
RightUpLeg  -5.42782 -4.60041 -10.9812
RightLeg  22.8415 5.90258 2.04391
RightFoot  1.70528 -0.000232287 0.279202
RightToes  -50.6256 -0.308429 -0.366982
427
root  49.0912 34.8977 47.8125 7.15424 33.2998 -0.526642
LeftUpLeg  -13.6701 10.4979 -0.515856
LeftLeg  14.3762 5.46778 1.02925
LeftFoot  -0.170257 0.00662304 0.00730969
LeftToes  -9.22398 1.61378e-006 8.80029e-008
Spine  3.00436 4.04346 -3.84452
Spine1  5.2935 8.51798 -7.49977
RightShoulder  0.0379112 6.39616 0.502033
RightArm  -55.3845 33.3612 46.0687
RightForeArm  -17.0591 48.0374 11.2551
RightHand  0.637921 -14.5006 -4.63907
LeftShoulder1  0.0724205 -1.20374 -7.4619
LeftArm  -25.7369 10.3613 -63.5899
LeftForeArm  31.879 -16.9603 -3.07413
LeftHand  0.109234 2.19609 5.19634
HEad  -1.89042 -29.5379 -4.79496
RightUpLeg  -6.18691 -5.31765 -10.7205
RightLeg  24.6778 5.93696 2.2696
RightFoot  2.0623 -0.00173994 0.323235
RightToes  -50.5649 -0.30789 -0.366706
428
root  49.2059 34.9063 47.8351 6.95364 33.6619 -0.927032
LeftUpLeg  -13.475 10.6027 -0.309719
LeftLeg  14.1507 5.0386 0.928105
LeftFoot  -0.3414 0.00743838 -0.0068038
LeftToes  -9.18799 1.61378e-006 8.80029e-008
Spine  3.07962 4.13938 -3.87208
Spine1  5.43777 8.72882 -7.57268
RightShoulder  0.0370457 6.58549 0.487973
RightArm  -56.5927 32.2473 44.785
RightForeArm  -20.7103 48.3507 11.3688
RightHand  1.09457 -15.1617 -7.83728
LeftShoulder1  0.0703634 -1.13951 -7.41491
LeftArm  -26.7877 10.5951 -63.4045
LeftForeArm  32.0114 -16.3907 -2.96472
LeftHand  0.114079 2.2644 5.38096
HEad  -2.07401 -30.7062 -4.65343
RightUpLeg  -7.30485 -5.92366 -10.4711
RightLeg  27.2314 5.84007 2.53366
RightFoot  2.15002 -0.00210405 0.337284
RightToes  -48.9014 -0.293204 -0.359691
429
root  49.2882 34.905 47.8561 6.80289 33.7793 -1.15454
LeftUpLeg  -13.2425 10.4989 -0.189403
LeftLeg  13.9411 5.05397 0.911882
LeftFoot  -0.462616 0.00799183 -0.0175188
LeftToes  -9.33546 1.61378e-006 8.80029e-008
Spine  3.17329 4.24576 -3.90051
Spine1  5.61434 8.96596 -7.6551
RightShoulder  0.0360299 7.22659 0.536989
RightArm  -59.026 30.6042 43.7961
RightForeArm  -21.8819 49.2918 11.755
RightHand  1.28587 -15.7851 -8.88221
LeftShoulder1  0.0681761 -1.19188 -7.17921
LeftArm  -27.8652 11.0165 -63.3656
LeftForeArm  32.1581 -15.8592 -2.86323
LeftHand  0.116598 2.29684 5.42507
HEad  -2.37733 -31.664 -4.6499
RightUpLeg  -8.86101 -6.34728 -10.272
RightLeg  30.5558 5.41693 2.73006
RightFoot  1.81508 0.000506222 0.296239
RightToes  -44.6131 -0.256343 -0.33967
430
root  49.3445 34.8884 47.8789 6.73245 33.6806 -1.05598
LeftUpLeg  -12.9362 10.5661 -0.298043
LeftLeg  13.7943 5.11504 0.909399
LeftFoot  -0.603914 0.00859541 -0.0295518
LeftToes  -9.49151 1.61378e-006 8.80029e-008
Spine  3.33956 4.4114 -3.93086
Spine1  5.93461 9.32069 -7.72036
RightShoulder  0.0352943 7.36782 0.529289
RightArm  -60.5846 29.2693 42.8321
RightForeArm  -20.713 50.9662 12.4945
RightHand  1.34237 -15.7304 -9.32075
LeftShoulder1  0.0658517 -1.22277 -7.00805
LeftArm  -28.1787 11.3153 -63.2858
LeftForeArm  32.1908 -15.4523 -2.78594
LeftHand  0.120152 2.42923 5.30891
HEad  -2.76826 -32.7103 -4.92204
RightUpLeg  -10.5775 -6.48514 -10.2836
RightLeg  34.0134 4.56419 2.6527
RightFoot  1.1786 0.00499354 0.22044
RightToes  -40.4471 -0.222065 -0.317634
431
root  49.3885 34.8759 47.9027 6.64287 33.7007 -0.887085
LeftUpLeg  -12.581 10.7342 -0.433308
LeftLeg  13.6004 4.9326 0.859824
LeftFoot  -0.624258 0.00831453 -0.0282464
LeftToes  -9.88308 1.61378e-006 8.80029e-008
Spine  3.51638 4.45642 -3.93433
Spine1  6.26664 9.4491 -7.76924
RightShoulder  0.0346816 7.36622 0.654437
RightArm  -60.8188 28.1849 41.707
RightForeArm  -21.2808 52.3703 13.1524
RightHand  1.37282 -15.2541 -9.85099
LeftShoulder1  0.0636012 -1.23328 -7.10162
LeftArm  -28.1467 11.7852 -62.8079
LeftForeArm  32.2834 -15.3374 -2.76413
LeftHand  0.121052 2.54044 5.07143
HEad  -3.20595 -33.3445 -5.39176
RightUpLeg  -12.0784 -7.19259 -10.3606
RightLeg  36.2105 2.93398 1.85337
RightFoot  0.829488 0.00766194 0.170575
RightToes  -39.8736 -0.217474 -0.314407
432
root  49.4182 34.8803 47.9382 6.52309 33.8603 -0.950241
LeftUpLeg  -12.3481 10.9208 -0.343778
LeftLeg  13.4381 4.55135 0.780153
LeftFoot  -0.659875 0.00810238 -0.0282833
LeftToes  -10.1158 1.61378e-006 8.80029e-008
Spine  3.66479 4.3464 -3.89276
Spine1  6.55039 9.27036 -7.77206
RightShoulder  0.0340504 7.4832 0.75478
RightArm  -61.3088 27.3209 41.0195
RightForeArm  -22.756 53.9938 13.9658
RightHand  1.36294 -14.8292 -10.0703
LeftShoulder1  0.0616358 -1.20827 -7.08628
LeftArm  -28.2233 12.4231 -62.2868
LeftForeArm  32.3525 -15.2972 -2.75647
LeftHand  0.126825 2.40425 5.29406
HEad  -3.71171 -33.6991 -5.61883
RightUpLeg  -13.1795 -8.36349 -10.3316
RightLeg  36.4672 1.70571 1.08147
RightFoot  -0.117021 0.0104135 0.120424
RightToes  -38.3958 -0.205796 -0.305882
433
root  49.4426 34.8984 47.999 6.55159 33.9499 -1.15439
LeftUpLeg  -12.1818 11.0788 -0.143204
LeftLeg  12.9981 4.29336 0.70212
LeftFoot  -0.512403 0.00713047 -0.0166549
LeftToes  -10.5464 1.61378e-006 8.80029e-008
Spine  3.66597 4.27636 -3.81621
Spine1  6.57358 9.12866 -7.66371
RightShoulder  0.0333604 7.74931 0.520602
RightArm  -62.6911 25.8329 41.019
RightForeArm  -22.7416 56.0844 15.1256
RightHand  1.42409 -15.032 -10.3881
LeftShoulder1  0.0601666 -1.301 -6.86929
LeftArm  -28.9136 13.1245 -62.0922
LeftForeArm  32.841 -15.0674 -2.7127
LeftHand  0.131203 2.3401 5.54025
HEad  -3.91899 -34.3848 -5.60758
RightUpLeg  -14.0107 -9.16153 -10.2229
RightLeg  34.6338 0.972946 0.569142
RightFoot  0.0867524 0.010213 0.120424
RightToes  -37.6264 -0.199805 -0.301325
434
root  49.4431 34.9152 48.089 6.68953 34.2145 -1.34886
LeftUpLeg  -12.0504 10.8697 0.118732
LeftLeg  12.4279 4.18933 0.642469
LeftFoot  -0.229423 0.00561985 0.00333591
LeftToes  -11.2614 1.61378e-006 8.80029e-008
Spine  3.58082 4.19641 -3.70543
Spine1  6.45127 8.93274 -7.43624
RightShoulder  0.0329065 7.61586 0.317779
RightArm  -63.1577 24.2846 41.1425
RightForeArm  -20.8868 58.0978 16.3844
RightHand  1.54611 -15.1571 -11.2071
LeftShoulder1  0.0593968 -1.28892 -6.78649
LeftArm  -29.6117 13.6054 -61.9618
LeftForeArm  33.1426 -14.7905 -2.6603
LeftHand  0.129226 2.48731 5.54143
HEad  -3.56813 -35.3158 -5.75431
RightUpLeg  -14.5327 -9.75919 -10.1063
RightLeg  31.178 0.664801 0.335916
RightFoot  2.22798 0.00944692 0.136832
RightToes  -38.6294 -0.207628 -0.30725
435
root  49.4216 34.9192 48.2113 6.82021 34.8063 -1.46933
LeftUpLeg  -12.0301 10.559 0.402466
LeftLeg  12.1794 3.83623 0.571311
LeftFoot  -0.164202 0.0051873 0.00669614
LeftToes  -11.692 1.61378e-006 8.80029e-008
Spine  3.53229 4.01631 -3.59215
Spine1  6.41212 8.5306 -7.19482
RightShoulder  0.0326321 7.17398 0.458935
RightArm  -63.136 23.2014 40.7226
RightForeArm  -19.1009 59.662 17.4728
RightHand  1.5925 -14.5224 -12.0748
LeftShoulder1  0.0592688 -1.24932 -6.86472
LeftArm  -30.1044 13.8805 -61.6432
LeftForeArm  33.1968 -14.6468 -2.63321
LeftHand  0.126856 2.47139 5.53057
HEad  -3.46513 -36.3253 -5.77255
RightUpLeg  -14.663 -10.2296 -10.0752
RightLeg  26.862 0.805333 0.338903
RightFoot  4.6408 0.00858404 0.165681
RightToes  -40.6976 -0.224079 -0.319029
